<svg width="3" height="4" viewBox="0 0 3 4" fill="none" xmlns="http://www.w3.org/2000/svg">
<path d="M2.07768 0.623962C2.07536 0.678509 2.05327 0.731809 2.04147 0.784895C2.0352 0.813123 2.03129 0.842702 2.02136 0.86996C2.01352 0.891463 1.99997 0.910313 1.99607 0.933183C1.99166 0.958979 1.97885 0.978067 1.97308 1.00273C1.96756 1.0263 1.96975 1.05002 1.9679 1.074C1.95996 1.17733 1.96388 1.28182 1.96388 1.38552C1.96388 1.40781 1.96691 1.43313 1.96273 1.45507C1.95708 1.48475 1.94279 1.509 1.93284 1.53726C1.9129 1.59393 1.8584 1.64206 1.84606 1.70106C1.82632 1.79534 1.78704 1.88613 1.74432 1.97407C1.71691 2.03052 1.70521 2.09639 1.6742 2.1511C1.63579 2.21889 1.60602 2.30194 1.54804 2.35686C1.5195 2.3839 1.50442 2.43012 1.47907 2.46032C1.45624 2.48752 1.42695 2.50817 1.40349 2.53475C1.39367 2.54588 1.38738 2.55966 1.37734 2.57125C1.36804 2.58197 1.36531 2.59868 1.36412 2.61235C1.36262 2.62962 1.354 2.63534 1.34917 2.65143C1.33738 2.69074 1.34013 2.72631 1.31526 2.76265C1.29624 2.79046 1.28219 2.82976 1.25779 2.85288C1.22612 2.88288 1.21521 2.9308 1.18393 2.96381C1.16293 2.98598 1.15732 3.0182 1.13881 3.04255C1.1147 3.07429 1.10443 3.11216 1.07904 3.14371C1.03916 3.19326 0.993593 3.24423 0.943681 3.28395C0.932952 3.29249 0.910716 3.31901 0.895689 3.31901C0.865047 3.31901 0.84202 3.24677 0.833615 3.22533C0.814127 3.1756 0.808552 3.12229 0.799991 3.06986C0.796197 3.04661 0.776468 3.00113 0.797692 2.97991C0.824214 2.95338 0.843312 2.92266 0.867526 2.89542C0.889739 2.87042 0.92224 2.85781 0.942819 2.83248C0.967601 2.80198 0.975603 2.77065 0.993398 2.73506C1.00344 2.71497 1.00275 2.69227 1.01237 2.67183C1.02298 2.64929 1.03844 2.62166 1.04311 2.59711C1.04718 2.57577 1.06023 2.54484 1.07128 2.52642C1.0907 2.49405 1.11299 2.46312 1.1299 2.42928C1.13689 2.41531 1.13395 2.40138 1.13738 2.38675C1.14174 2.36812 1.15402 2.35187 1.15922 2.33272C1.18087 2.25289 1.23123 2.18602 1.25405 2.10742C1.26301 2.07655 1.28166 2.05246 1.29026 2.01948C1.29577 1.99838 1.31096 1.9836 1.31613 1.962C1.31933 1.94859 1.32405 1.93251 1.32992 1.92005C1.34297 1.89231 1.34157 1.85946 1.34716 1.82923C1.35182 1.80408 1.3609 1.77916 1.36785 1.75452C1.37522 1.72841 1.37543 1.70153 1.38222 1.6752C1.38979 1.64587 1.38639 1.61465 1.39084 1.58496C1.39455 1.56027 1.4057 1.51675 1.42073 1.49702C1.44845 1.46065 1.44872 1.39362 1.46499 1.35103C1.48178 1.30709 1.48482 1.25899 1.50235 1.21482C1.51237 1.18957 1.51382 1.16294 1.52419 1.1378C1.53358 1.11502 1.54742 1.0816 1.54488 1.05618C1.54469 1.05429 1.50879 1.10848 1.50177 1.11941C1.49181 1.13493 1.48872 1.15356 1.48051 1.16998C1.47178 1.18744 1.45908 1.20246 1.44947 1.21941C1.4229 1.26627 1.3989 1.31805 1.36728 1.36138C1.35258 1.38152 1.33556 1.41139 1.33251 1.43581C1.3291 1.46309 1.32585 1.49189 1.32187 1.51973C1.3137 1.57695 1.28107 1.6308 1.28107 1.68986C1.28107 1.72741 1.28107 1.76496 1.28107 1.80251C1.28107 1.8311 1.26932 1.84738 1.26526 1.87378C1.26301 1.88838 1.25745 1.90224 1.2552 1.91689C1.25182 1.93886 1.23347 1.95375 1.22675 1.97465C1.22169 1.99038 1.22337 2.01297 1.21353 2.02609C1.20357 2.03937 1.20054 2.05147 1.19571 2.0669C1.18336 2.10645 1.17819 2.14976 1.16037 2.18702C1.14045 2.22867 1.11211 2.26266 1.10002 2.30801C1.09507 2.32656 1.08604 2.33721 1.07731 2.35399C1.06937 2.36927 1.07024 2.38667 1.06294 2.40198C1.04995 2.42927 1.03117 2.45154 1.02788 2.48274C1.02623 2.49846 1.02122 2.51095 1.01725 2.52584C1.00666 2.56556 0.99303 2.60527 0.980466 2.64453C0.962311 2.70127 0.924008 2.75085 0.919254 2.81265C0.915535 2.86099 0.911079 2.90935 0.906035 2.95778C0.901272 3.00349 0.879458 3.04051 0.870399 3.0848C0.866166 3.1055 0.862664 3.12352 0.849421 3.14055C0.83875 3.15427 0.837109 3.17469 0.825855 3.18969C0.788304 3.23976 0.735285 3.26739 0.685327 3.30292C0.660324 3.3207 0.630311 3.34493 0.624115 3.37592" stroke="white" stroke-linecap="round"/>
</svg>
