<svg width="3" height="5" viewBox="0 0 3 5" fill="none" xmlns="http://www.w3.org/2000/svg">
<path d="M1.79023 0.508086C1.72066 0.647226 1.65292 0.782876 1.58155 0.919128C1.54041 0.997654 1.54707 1.09642 1.50408 1.17524C1.45863 1.25857 1.39566 1.28185 1.39183 1.39657C1.38949 1.46699 1.39183 1.53793 1.39183 1.60841C1.39183 1.97169 1.42405 2.34113 1.25113 2.65815C1.20849 2.73633 1.20094 2.84814 1.17683 2.93324C1.15525 3.00938 1.087 3.0899 1.07881 3.16089C1.06586 3.27311 0.938604 3.44508 0.895422 3.55612C0.853327 3.66437 0.86819 3.67978 0.794242 3.77113C0.720458 3.86228 0.641715 3.95727 0.572912 4.05254C0.490974 4.16599 0.509674 4.35728 0.509674 4.49204" stroke="white" stroke-linecap="round"/>
</svg>
